<svg width="685" height="670" viewBox="0 0 685 670" fill="none" xmlns="http://www.w3.org/2000/svg">
<rect width="685" height="670" fill="white"/>
<line x1="550.385" y1="125.142" x2="484.708" y2="190.819" stroke="black" stroke-width="40"/>
<line x1="134.864" y1="544.007" x2="200.541" y2="478.33" stroke="black" stroke-width="40"/>
<line x1="360.174" y1="248.886" x2="319.161" y2="289.898" stroke="black" stroke-width="40"/>
<line x1="428.763" y1="317.475" x2="387.751" y2="358.487" stroke="black" stroke-width="40"/>
<path d="M504.578 314.3C519.608 299.269 526.559 277.391 523.902 253.479C521.245 229.566 509.198 205.577 490.41 186.789C471.622 168.001 447.633 155.954 423.72 153.297C399.807 150.64 377.929 157.591 362.899 172.621L433.738 243.46L504.578 314.3Z" fill="black"/>
<path d="M180.671 354.849C165.641 369.879 158.69 391.757 161.347 415.67C164.004 439.583 176.052 463.572 194.839 482.36C213.627 501.147 237.616 513.195 261.529 515.852C285.442 518.509 307.32 511.558 322.35 496.527L251.511 425.688L180.671 354.849Z" fill="black"/>
<path d="M196.99 374.202C186.824 384.369 182.671 399.716 185.446 416.868C188.221 434.021 197.696 451.573 211.786 465.663C225.877 479.754 243.429 489.228 260.581 492.003C277.733 494.778 293.081 490.625 303.247 480.459L250.119 427.33L196.99 374.202Z" fill="white"/>
<path d="M488.104 292.577C498.27 282.411 502.423 267.064 499.65 249.913C496.876 232.762 487.403 215.211 473.314 201.122C459.225 187.033 441.675 177.56 424.523 174.786C407.372 172.013 392.025 176.166 381.859 186.333L434.981 239.455L488.104 292.577Z" fill="white"/>
<rect x="363.002" y="172.518" width="200" height="56" transform="rotate(45 363.002 172.518)" fill="black"/>
<rect x="322.247" y="496.63" width="200.362" height="56" transform="rotate(-135 322.247 496.63)" fill="black"/>
<mask id="path-11-inside-1_93_39" fill="white">
<path d="M301.34 482.311L195.181 376.153L220.284 351.05L326.442 457.209L301.34 482.311Z"/>
</mask>
<path d="M301.34 482.311L195.181 376.153L220.284 351.05L326.442 457.209L301.34 482.311Z" fill="white"/>
<path d="M302.754 480.897L196.596 374.738L193.767 377.567L299.926 483.725L302.754 480.897Z" fill="black" mask="url(#path-11-inside-1_93_39)"/>
<mask id="path-13-inside-2_93_39" fill="white">
<path d="M381.859 186.332L488.091 292.564L467.348 313.306L361.117 207.075L381.859 186.332Z"/>
</mask>
<path d="M381.859 186.332L488.091 292.564L467.348 313.306L361.117 207.075L381.859 186.332Z" fill="white"/>
<path d="M380.445 187.747L486.676 293.978L489.505 291.15L383.273 184.918L380.445 187.747Z" fill="black" mask="url(#path-13-inside-2_93_39)"/>
</svg>
